<svg xmlns="http://www.w3.org/2000/svg" viewBox="0 0 448 512" fill="currentColor">
  <!-- Upside-down chess king - clean design for "negate superadmin" -->
  <path d="M224 512c-17.7 0-32-14.3-32-32v-16h-16c-17.7 0-32-14.3-32-32s14.3-32 32-32h16v-48h-56c-35.3 0-64-28.7-64-64 0-25.2 14.6-47.1 35.8-57.6 1.4-.7 2.8-1.3 4.2-1.9l59.4-237.6c2.3-9.1 10.5-15.5 19.9-15.5h65.6c9.4 0 17.6 6.4 19.9 15.5l59.4 237.6c1.4.6 2.8 1.2 4.2 1.9 21.2 10.5 35.8 32.4 35.8 57.6 0 35.3-28.7 64-64 64h-56v48h16c17.7 0 32 14.3 32 32s-14.3 32-32 32h-16v16c0 17.7-14.3 32-32 32z"/>
</svg>
